<svg xmlns="http://www.w3.org/2000/svg" width="655" height="559.9" viewBox="0 0 655 559.9"><g style="isolation:isolate"><g id="Layer_1" data-name="Layer 1"><rect y="1.83" width="655" height="558.06" style="fill:#e0301e"/><rect x="246.84" y="370.41" width="49.83" height="49.83" style="fill:#464646"/><rect x="242.22" y="201.73" width="160.21" height="160.21" transform="translate(604.16 -40.49) rotate(90)" style="fill:#fff"/><rect x="341.83" y="390.08" width="30.68" height="30.68" style="fill:#fff"/><rect x="141.43" y="262.34" width="30.68" height="30.68" style="fill:#fff"/><rect x="531.1" y="225.92" width="32.97" height="32.97" style="fill:#fff"/><rect x="371.75" y="110.81" width="30.68" height="30.68" style="fill:#fff"/><rect x="279.76" y="141.49" width="30.68" height="30.68" style="fill:#fff"/><rect x="341.08" y="80.14" width="30.68" height="30.68" style="fill:#fff"/><path d="M338.75,113.18v25.95H312.8V113.18h25.95m2.36-2.37H310.44v30.68h30.67V110.81Z" style="fill:#fff"/><path d="M308.08,82.5v26h-26V82.5h26m2.36-2.36H279.76v30.67h30.68V80.14Z" style="fill:#fff"/><path d="M400.07,82.5v26H374.12V82.5h25.95m2.36-2.36H371.75v30.67h30.68V80.14Z" style="fill:#fff"/><g style="opacity:0.8;mix-blend-mode:screen"><rect x="341.08" y="49.46" width="30.68" height="30.68" style="fill:#af2822"/></g><g style="opacity:0.8;mix-blend-mode:screen"><rect x="341.08" y="110.81" width="30.68" height="30.68" style="fill:#af2822"/></g><g style="opacity:0.8;mix-blend-mode:screen"><rect x="480.43" y="201.73" width="30.68" height="30.68" style="fill:#af2822"/></g><g style="opacity:0.8;mix-blend-mode:screen"><rect x="310.44" y="140.93" width="30.68" height="30.68" style="fill:#af2822"/></g><g style="opacity:0.8;mix-blend-mode:screen"><rect x="324.23" y="407.88" width="64.37" height="64.37" style="fill:#af2822"/></g><g style="opacity:0.8;mix-blend-mode:screen"><rect x="253.3" y="22.99" width="57.14" height="57.14" style="fill:#af2822"/></g><path d="M528.56,265.09v59.26H469.3V265.09h59.26m2.54-2.54H466.76v64.33H531.1V262.55Z" style="fill:#fff"/><path d="M430,334.38v55.13H374.87V334.38H430m2.36-2.37H372.5v59.86h59.86V332Z" style="fill:#fff"/><path d="M229.6,204.84V260H174.47V204.84H229.6m2.36-2.36H172.11v59.86H232V202.48Z" style="fill:#fff"/><path d="M254.82,299.32v25.2h-25.2v-25.2h25.2m2.36-2.36H227.26v29.92h29.92V297Z" style="fill:#fff"/><path d="M308.08,357.81V383H282.87v-25.2h25.21m2.36-2.36H280.51v29.93h29.93V355.45Z" style="fill:#fff"/><rect x="456.13" y="464.74" width="21.26" height="21.26" style="fill:#fff"/><rect x="130.85" y="84.84" width="21.26" height="21.26" style="fill:#fff"/><rect x="186.7" y="405.42" width="21.26" height="21.26" style="fill:#fff"/><path d="M638.82,296.35v18h-18v-18h18m1.64-1.63H619.2V316h21.26V294.72Z" style="fill:#fff"/><path d="M504.76,518.07v18h-18v-18h18m1.64-1.63H485.14V537.7H506.4V516.44Z" style="fill:#fff"/><path d="M567.39,106.53v18h-18v-18h18m1.64-1.64H547.77v21.26H569V104.89Z" style="fill:#fff"/><g style="opacity:0.8;mix-blend-mode:screen"><rect x="425.49" y="242.11" width="21.26" height="21.26" style="fill:#af2822"/></g><g style="opacity:0.8;mix-blend-mode:screen"><rect x="619.2" y="405.42" width="21.26" height="21.26" style="fill:#af2822"/></g><g style="opacity:0.8;mix-blend-mode:screen"><rect x="558.4" y="537.31" width="21.26" height="21.26" style="fill:#af2822"/></g><g style="opacity:0.8;mix-blend-mode:screen"><rect x="518.79" y="455.57" width="39.6" height="39.6" style="fill:#af2822"/></g><rect x="173.32" y="426.68" width="13.38" height="13.38" style="fill:#464646"/><rect x="538.6" y="27.05" width="13.38" height="13.38" style="fill:#464646"/><rect x="14.24" y="219.03" width="26.75" height="26.75" style="fill:#464646"/><rect x="57.11" y="332.01" width="17.66" height="17.66" style="fill:#464646"/><path d="M488.68,380.73v22.63H466.05V380.73h22.63m2.06-2.06H464v26.75h26.75V378.67Z" style="fill:#464646"/><path d="M142.17,344.13v22.63H119.54V344.13h22.63m2.06-2.06H117.48v26.75h26.75V342.07Z" style="fill:#464646"/><path d="M178,511.51v22.63H155.33V511.51H178m2.06-2.06H153.27V536.2H180V509.45Z" style="fill:#464646"/><rect x="389.06" y="234.72" width="26.75" height="26.75" style="fill:#464646"/><rect x="252.3" y="513.69" width="18.26" height="18.26" style="fill:#464646"/><rect x="397.14" y="503.06" width="26.75" height="26.75" style="fill:#464646"/><path d="M269,5.78V39.11H235.64V5.78H269m1.32-1.32h-36v36h36v-36Z" style="fill:#464646"/><rect x="533.46" y="372.66" width="56.1" height="56.1" style="fill:#464646"/><path d="M597.82,193v48.08H549.74V193h48.08m2.06-2.06h-52.2v52.2h52.2V191Z" style="fill:#464646"/><path d="M276,174v56H220V174h56m2.4-2.4H217.6v60.8h60.8v-60.8Z" style="fill:#464646"/></g></g></svg>