<?xml version="1.0" encoding="UTF-8"?> <svg xmlns="http://www.w3.org/2000/svg" width="699" height="397" viewBox="0 0 699 397" fill="none"><g clip-path="url(#clip0)"><path d="M164.463 395.816C164.463 395.816 97.1632 302.433 130.054 206.297C151.494 143.634 231.915 109.297 277.302 143.634C296.632 158.259 358.651 144.127 391.764 83.5805C456.111 -34.0755 680.686 37.3779 639.801 218.021C620.017 305.441 700.016 308.617 659.253 396L164.463 395.816Z" fill="#F6FBFE"></path><path d="M283.628 395.071L283.798 395.069C285.187 395.044 286.26 393.909 286.129 392.602L276.865 300.079L268.782 300.802L282.084 393.82C282.145 394.181 282.335 394.507 282.62 394.738C282.904 394.968 283.262 395.086 283.628 395.071Z" fill="#C1C7D7"></path><path d="M194.432 395.071L194.262 395.069C192.873 395.044 191.801 393.909 191.932 392.602L201.197 300.079L209.279 300.802L195.977 393.82C195.916 394.181 195.725 394.507 195.441 394.737C195.156 394.968 194.797 395.086 194.432 395.071Z" fill="#C1C7D7"></path><path d="M348.977 395.071L349.147 395.069C350.535 395.044 351.608 393.909 351.478 392.602L342.214 300.079L334.131 300.802L347.433 393.82C347.494 394.181 347.684 394.507 347.968 394.738C348.253 394.968 348.611 395.086 348.977 395.071Z" fill="#C7D1EA"></path><path d="M197.192 286.623L180.75 205.413C178.639 194.418 187.749 184.364 199.577 184.634L231.289 185.358C236.619 185.48 241.771 187.3 245.996 190.553C250.221 193.806 253.298 198.322 254.78 203.444L278.835 286.623H197.192Z" fill="#C1C7D7"></path><path d="M207.139 286.623L190.697 205.413C188.586 194.418 197.695 184.364 209.524 184.634L241.236 185.358C246.566 185.48 251.719 187.3 255.944 190.553C260.168 193.805 263.245 198.322 264.727 203.444L288.783 286.623H207.139Z" fill="#C7D1EA"></path><path d="M201.774 301.433H327.234C328.449 301.43 329.612 300.946 330.471 300.087C331.33 299.228 331.814 298.064 331.817 296.85V291.206C331.814 289.991 331.33 288.827 330.471 287.969C329.612 287.11 328.449 286.626 327.234 286.622H197.191V296.85C197.195 298.064 197.679 299.228 198.537 300.087C199.396 300.946 200.56 301.43 201.774 301.433Z" fill="#C1C7D7"></path><path d="M260.649 301.433H340.627C341.606 301.43 342.543 301.04 343.235 300.348C343.926 299.656 344.317 298.719 344.32 297.74V290.313C344.316 289.335 343.926 288.397 343.235 287.706C342.543 287.015 341.605 286.625 340.627 286.622H260.649C259.671 286.625 258.734 287.015 258.042 287.706C257.35 288.397 256.96 289.335 256.957 290.313V297.74C256.96 298.719 257.35 299.656 258.042 300.348C258.734 301.04 259.671 301.43 260.649 301.433Z" fill="#C1C7D7"></path><path d="M306.486 269.626C299.699 281.442 291.162 286.001 291.162 286.001H255.647C255.647 286.001 311.664 260.615 306.486 269.626Z" fill="#233761"></path><path d="M350.29 387.002C349.907 390.729 355.089 391.691 361.1 392.057C367.111 392.422 365.281 393.633 373.506 395.214C381.732 396.795 385.059 394.575 385.669 393.468C386.209 392.486 382.393 390.9 378.328 389.109C377.818 388.884 377.305 388.655 376.794 388.423C372.219 386.353 369.683 382.204 366.142 378.344C362.787 374.685 359.689 363.062 359.689 363.062L348.514 360.548C348.514 360.548 351.547 371.015 352.591 375.48C353.205 378.107 352.226 381.025 351.362 383.245C350.896 384.454 350.425 385.69 350.29 387.002Z" fill="#FFB17D"></path><path d="M361.1 392.057C367.111 392.419 365.281 393.633 373.506 395.214C381.732 396.796 385.059 394.575 385.669 393.468C386.209 392.486 382.393 390.9 378.328 389.109L378.264 389.178C374.18 390.31 369.866 390.315 365.779 389.193C360.343 387.654 355.106 384.338 351.362 383.245C350.896 384.454 350.425 385.69 350.289 387.002C349.907 390.73 355.089 391.692 361.1 392.057Z" fill="#0D3BFB"></path><path d="M333.359 257.524C327.349 253.303 287.574 245.775 267.275 243.596L244.842 224.119C244.842 224.119 225.744 252.408 225.594 274.049C225.524 284.139 230.171 285.14 230.171 285.143C230.171 285.145 302.092 285.678 305.244 286.001C310.404 286.534 317.209 299.391 318.911 311.101C320.613 322.811 350.603 370.438 350.603 370.438C350.603 370.438 356.858 372.443 359.748 372.273C362.859 372.09 364.299 371.047 364.299 371.047C364.299 371.047 346.92 267.049 333.359 257.524Z" fill="#20BAFC"></path><path d="M331.687 387.002C331.305 390.729 336.487 391.691 342.498 392.057C348.508 392.422 346.678 393.633 354.904 395.214C363.13 396.795 366.457 394.575 367.064 393.468C367.606 392.486 363.791 390.9 359.726 389.109C359.215 388.884 358.702 388.655 358.192 388.423C353.616 386.353 351.081 382.204 347.539 378.344C344.185 374.685 341.087 363.062 341.087 363.062L329.911 360.548C329.911 360.548 332.945 371.015 333.988 375.48C334.602 378.107 333.623 381.025 332.76 383.245C332.291 384.454 331.823 385.69 331.687 387.002Z" fill="#FFB17D"></path><path d="M342.497 392.057C348.508 392.419 346.678 393.633 354.904 395.214C363.129 396.796 366.457 394.575 367.063 393.468C367.606 392.486 363.79 390.9 359.726 389.109L359.662 389.178C355.577 390.31 351.263 390.315 347.176 389.193C341.74 387.654 336.504 384.338 332.76 383.245C332.291 384.454 331.823 385.69 331.687 387.002C331.305 390.73 336.487 391.692 342.497 392.057Z" fill="#0D3BFB"></path><path d="M314.594 257.718C309.37 254.049 293.659 251.205 276.317 249.096C273.975 248.81 271.774 247.819 270.006 246.256C268.238 244.692 266.986 242.629 266.414 240.339L226.074 224.312C226.074 224.312 206.979 252.601 206.826 274.243C206.757 284.332 212.196 286.192 212.196 286.195C212.196 286.197 282.631 286.195 286.477 286.195C291.636 286.727 298.444 299.584 300.143 311.294C301.843 323.004 331.835 370.631 331.835 370.631C331.835 370.631 338.09 372.637 340.981 372.466C344.093 372.284 345.531 371.24 345.531 371.24C345.531 371.24 328.153 267.242 314.594 257.718Z" fill="#20BAFC"></path><path d="M260.615 106.589C255.07 103.676 246.637 103.284 245.266 103.099C228.868 100.896 219 124.725 218.418 131.946C217.35 145.257 210.311 147.284 200.4 155.62C180.532 172.334 186.358 191.754 197.223 198.972C203.74 203.301 215.231 198.969 215.231 198.969C215.394 199.083 246.654 181.493 262.063 173.007C285.164 169.722 274.74 114.007 260.615 106.589Z" fill="#0C0042"></path><path d="M257.194 164.809C257.268 164.846 249.908 168.193 244.598 166.437C239.601 164.79 235.2 157.266 235.269 157.256C237.44 156.941 239.642 154.801 240.259 142.121L241.219 142.363L257.367 146.445C257.367 146.445 256.728 151.562 256.464 156.399C256.242 160.461 256.289 164.327 257.194 164.809Z" fill="#FFB17D"></path><path d="M257.367 146.446C257.367 146.446 257.367 147.499 256.763 152.259C247.632 149.954 243.604 146.927 240.765 143.461L257.367 146.446Z" fill="#EC975C"></path><path d="M260.812 147.09C260.812 147.09 239.457 150.568 237.499 137.235C235.54 123.902 231.461 115.371 245.012 112.586C258.562 109.801 261.967 114.501 263.703 118.793C265.44 123.085 266.315 145.841 260.812 147.09Z" fill="#FFB17D"></path><path d="M260.832 112.029C260.832 112.029 251.137 127.338 242.479 130.964C233.821 134.591 229.569 132.748 229.569 132.748C232.166 128.475 233.856 123.713 234.534 118.758C234.679 117.598 235.13 116.496 235.843 115.569C236.555 114.641 237.503 113.921 238.587 113.482C244.8 110.993 256.817 107.068 260.832 112.029Z" fill="#0C0042"></path><path d="M252.315 113.509C252.315 113.509 257.998 116.422 260.339 119.153C262.598 121.79 265.208 128.941 265.02 132.153C265.02 132.153 267.825 116.763 261.984 111.471C255.791 105.859 252.315 113.509 252.315 113.509Z" fill="#0C0042"></path><path d="M274.277 197.381C273.631 240.792 274.099 231.719 269.351 235.839C268.207 236.83 264.993 237.422 260.758 237.701C247.449 238.584 224.054 236.394 223.164 233.932C220.093 225.421 222.261 222.777 219.701 209.745C219.432 208.358 219.101 206.859 218.714 205.226C216.578 196.275 214.501 193.231 222.076 178.852C228.948 165.827 237.028 155.246 237.669 155.628C255.796 166.389 256.417 157.368 256.417 157.368C256.417 157.368 274.595 176.207 274.277 197.381Z" fill="white"></path><path d="M256.417 157.368C256.417 157.368 274.97 160.513 277.16 168.545C279.35 176.576 292.238 223.793 292.238 223.793C292.238 223.793 282.756 225.497 278.376 221.116C273.996 216.735 263.133 180.47 263.133 180.47L256.417 157.368Z" fill="white"></path><path d="M260.759 237.701C247.449 238.584 224.055 236.393 223.164 233.931C220.093 225.421 222.261 222.776 219.701 209.744L226.119 191.666C226.119 191.666 225.058 211.799 230.995 217.093C236.925 222.389 255.3 227.315 258.186 231.738C259.577 233.862 260.492 235.991 260.759 237.701Z" fill="#EBF2FF"></path><path d="M245.51 229.235C245.51 229.235 258.639 226.311 260.758 227.476C262.877 228.64 268.056 232.885 268.703 234.363C269.349 235.841 263.987 233.241 262.243 232.772C261.111 232.469 258.136 233.505 256.664 233.995C250.468 236.06 246.67 234.997 246.67 234.997L245.51 229.235Z" fill="#FFB17D"></path><path d="M237.669 155.627C237.669 155.627 219.087 156.712 212.982 165.227C204.391 177.211 187.348 228.287 197.116 235.098C208.116 242.77 247.181 237.104 247.181 237.104C247.181 237.104 248.48 231.028 246.67 228.088C244.86 225.147 215.471 220.401 214.115 219.044C212.758 217.687 231.069 192.588 231.069 188.517C231.069 184.447 237.669 155.627 237.669 155.627Z" fill="white"></path><path d="M261.395 231.132C261.395 231.132 264.145 234.679 265.047 235.103C265.95 235.527 266.532 235.421 266.532 235.421L264.677 232.084L261.395 231.132Z" fill="#FFB17D"></path><path d="M260.759 227.476L268.758 231.361C268.758 231.361 268.417 231.919 267.433 231.872C266.449 231.825 263.965 230.92 263.965 230.92L260.759 227.476Z" fill="#FFB17D"></path><path d="M290.225 236.684H253.075C253.075 236.296 253.152 235.91 253.301 235.551C253.45 235.192 253.668 234.866 253.943 234.591C254.218 234.316 254.545 234.098 254.904 233.949C255.263 233.801 255.649 233.724 256.037 233.724H290.225V236.684Z" fill="#D7D6E0"></path><path d="M290.117 196.22H347.554L333.777 236.684H275.97L290.117 196.22Z" fill="#EC7D2A"></path><path d="M348.4 196.22L334.622 236.684H275.944L290.21 196.22H348.4Z" fill="#0C0641"></path><path d="M317.433 216.079C317.078 217.626 315.534 218.879 313.987 218.879C312.441 218.879 311.479 217.626 311.836 216.079C312.194 214.532 313.736 213.279 315.28 213.279C316.824 213.279 317.79 214.532 317.433 216.079Z" fill="white"></path><path d="M240.235 245.789H491.936C492.445 245.789 492.932 245.587 493.291 245.228C493.651 244.868 493.853 244.381 493.853 243.873V238.601C493.853 238.093 493.651 237.605 493.291 237.246C492.932 236.887 492.445 236.685 491.936 236.684H240.235C239.727 236.685 239.239 236.887 238.88 237.246C238.52 237.605 238.318 238.093 238.318 238.601V243.873C238.318 244.381 238.52 244.868 238.88 245.228C239.239 245.587 239.727 245.789 240.235 245.789Z" fill="#C1C7D7"></path><path d="M498.098 395.75L498.207 395.737C498.51 395.703 498.804 395.61 499.07 395.462C499.337 395.314 499.572 395.115 499.762 394.875C499.952 394.636 500.092 394.362 500.175 394.068C500.258 393.775 500.283 393.467 500.247 393.164L477.816 241.317L469.605 241.551L495.994 394.223C496.083 394.698 496.351 395.121 496.742 395.405C497.133 395.689 497.619 395.813 498.098 395.75Z" fill="#C1C7D7"></path><path d="M231.806 395.75L231.698 395.737C231.394 395.703 231.101 395.61 230.834 395.462C230.567 395.314 230.332 395.114 230.142 394.875C229.953 394.636 229.812 394.362 229.729 394.068C229.646 393.775 229.622 393.467 229.658 393.164L252.088 241.317L260.299 241.551L233.908 394.223C233.82 394.698 233.553 395.122 233.162 395.406C232.771 395.69 232.285 395.813 231.806 395.75Z" fill="#C1C7D7"></path><path d="M283.731 395.75L283.622 395.737C283.319 395.703 283.026 395.609 282.759 395.461C282.492 395.313 282.257 395.114 282.068 394.875C281.878 394.636 281.738 394.362 281.655 394.068C281.572 393.774 281.548 393.467 281.585 393.164L304.012 241.317L312.226 241.551L285.835 394.223C285.746 394.698 285.478 395.121 285.087 395.405C284.695 395.689 284.21 395.813 283.731 395.75Z" fill="#C1C7D7"></path><path d="M698.048 397H0.953047C0.700674 396.999 0.458827 396.899 0.280279 396.721C0.101731 396.542 0.000975922 396.3 0 396.048L0 395.268C0.000519739 395.016 0.10105 394.773 0.279626 394.595C0.458202 394.416 0.700308 394.315 0.953047 394.314H698.048C698.301 394.315 698.542 394.416 698.721 394.595C698.899 394.774 699 395.016 699 395.268V396.048C698.999 396.3 698.898 396.542 698.72 396.72C698.542 396.899 698.3 396.999 698.048 397Z" fill="#C7D1EA"></path><path d="M416.058 395.626H460.568C462.709 393.014 461.919 383.374 461.596 380.226C461.527 379.592 461.483 379.222 461.483 379.222C461.483 379.222 446.284 367.063 444.195 376.373C444.131 376.664 444.055 376.95 443.971 377.231C441.341 385.939 429.542 389.898 422.729 390.999C418.3 391.719 416.664 394.02 416.058 395.626Z" fill="#C1C7D7"></path><path d="M537.507 250.982C535.899 250.982 461.266 264.996 448.921 280.281C442.752 287.915 441.835 376.094 441.835 376.094C441.835 376.094 449.466 385.554 465.945 380.061C465.945 380.061 478.026 319.732 477.135 301.433C476.886 296.374 528.127 300.701 537.507 298.273C546.887 295.846 569.801 275.441 564.75 265.502C559.698 255.563 537.507 250.982 537.507 250.982Z" fill="#0C0641"></path><path d="M449.24 229.39C449.24 229.39 434.187 229.592 430.625 231.119C427.064 232.646 419.842 236.147 421.776 236.684C423.709 237.222 432.931 236.465 434.924 236.768C436.917 237.072 439.374 236.684 440.595 236.684H447.508L449.24 229.39Z" fill="#FFB17D"></path><path d="M431.638 193.256C431.638 193.256 426.505 189.588 421.521 188.875C418.679 188.469 415.914 187.962 414.245 187.374C409.645 185.753 400.442 177.478 401.14 176.507C403.37 173.396 414.114 179.979 415.988 179.272C417.863 178.565 412.385 174.669 414.291 173.299C415.285 172.583 417.614 176.17 419.518 176.53C422.093 177.017 424.108 180.654 424.882 180.844C426.392 181.214 433 186.13 433 186.13L431.638 193.256Z" fill="#FFB17D"></path><path d="M530.073 150.417C530.073 150.417 518.614 153.97 507.322 185.067C496.031 216.163 491.742 217.843 487.637 219.064C483.533 220.285 447.508 227.456 447.508 227.456V236.685H503.018C503.018 236.685 523.833 216.884 530.073 203.553C536.313 190.222 530.073 150.417 530.073 150.417Z" fill="#188EF8"></path><path d="M396.388 395.626H440.895C443.036 393.014 442.247 383.374 441.924 380.226C441.857 379.592 441.813 379.222 441.813 379.222C441.813 379.222 426.612 367.063 424.525 376.373C424.461 376.664 424.385 376.95 424.301 377.231C421.669 385.939 409.872 389.898 403.06 390.999C398.63 391.719 396.992 394.02 396.388 395.626Z" fill="#C1C7D7"></path><path d="M515.513 250.982C513.905 250.982 439.272 264.996 426.927 280.281C420.758 287.915 419.841 376.094 419.841 376.094C419.841 376.094 427.472 385.554 443.951 380.061C443.951 380.061 456.031 319.732 455.141 301.433C454.892 296.374 506.133 300.701 515.513 298.273C524.893 295.846 547.807 275.441 542.755 265.502C537.704 255.563 515.513 250.982 515.513 250.982Z" fill="#0C0641"></path><path d="M520.185 160.272C525.552 159.828 531.183 158.398 536.047 156.819C542.13 154.845 547.033 151.96 543.873 146.401C540.96 141.278 536.249 129.829 536.568 120.347L525.251 129.469L517.563 135.666C517.563 135.666 517.595 139.317 518.434 145.718C518.589 146.885 518.767 148.145 518.979 149.49C519.063 150.022 518.988 150.568 518.763 151.058C518.538 151.548 518.174 151.961 517.716 152.245C517.657 152.281 517.6 152.317 517.544 152.353C513.723 154.754 515.686 160.644 520.185 160.272Z" fill="#FFB17D"></path><path d="M517.563 134.159C517.563 134.159 517.168 135.483 517.844 140.38C524.698 139.262 531.106 133.796 531.106 133.796C527.616 132.836 526.346 129.067 523.749 129.417L517.563 134.159Z" fill="#EC975C"></path><path d="M511.224 135.274C511.224 135.274 537.586 139.655 540.062 123.194C542.539 106.733 547.605 96.2092 530.877 92.7162C514.149 89.2232 509.929 95.0128 507.766 100.307C505.603 105.6 504.429 133.71 511.224 135.274Z" fill="#FFB17D"></path><path d="M503.889 93.0222C502.757 96.9864 505.786 101.814 510.872 103.405C518.421 105.763 516.754 115.024 520.15 114.898C523.547 114.772 524.918 109.575 527.952 113.729C530.542 117.271 525.799 121.47 526.124 123.413C526.684 126.749 531.908 133.572 536.614 133.229C541.32 132.886 550.13 110.514 548.367 103.592C546.603 96.6706 539.559 89.3713 532.892 88.3648C526.225 87.3584 516.961 90.2396 514.823 90.2396C512.684 90.2396 504.501 90.881 503.889 93.0222Z" fill="#0C0042"></path><path d="M565.102 173.264C561.291 157.926 550.759 141.83 543.638 141.845C531.506 141.867 514.06 145.069 507.018 162.446C501.831 175.244 494.913 248.861 502.732 254.095C520.606 266.064 562.041 290.498 569.401 265.581C576.147 242.753 571.714 199.884 565.102 173.264Z" fill="#188EF8"></path><path d="M535.63 158.001C534.826 155.905 533.543 154.027 531.882 152.517C530.222 151.007 528.231 149.907 526.069 149.304C523.907 148.702 521.634 148.615 519.433 149.049C517.231 149.484 515.161 150.428 513.39 151.806C509.271 155.01 504.23 159.573 498.137 166.061C475.493 190.178 470.89 190.029 466.638 189.53C462.386 189.032 426.452 181.405 426.452 181.405C425.235 182.367 424.238 183.578 423.529 184.957C422.083 187.888 422.811 189.886 422.811 189.886C421.403 188.976 435.548 198.728 442.59 202.616C451.886 207.749 465.896 212.564 471.477 214.392C473.057 214.91 474.765 214.884 476.329 214.318C484.611 211.334 512.426 200.455 535.065 181.576C541.032 176.601 538.839 166.351 535.63 158.001Z" fill="#188EF8"></path><path d="M544.859 141.993L542.114 135.802C542.114 135.802 517.523 137.807 513.39 151.806C513.39 151.806 532.451 142.292 544.859 141.993Z" fill="white"></path><path d="M604.564 395.071L604.734 395.069C606.122 395.044 607.193 393.909 607.062 392.602L597.8 300.079L589.718 300.802L603.017 393.82C603.079 394.181 603.27 394.507 603.555 394.737C603.839 394.967 604.198 395.086 604.564 395.071Z" fill="#C1C7D7"></path><path d="M556.884 395.071L557.054 395.069C558.443 395.044 559.515 393.909 559.385 392.602L550.121 300.079L542.038 300.802L555.34 393.82C555.401 394.181 555.591 394.507 555.875 394.738C556.16 394.968 556.518 395.086 556.884 395.071Z" fill="#C1C7D7"></path><path d="M467.376 395.071L467.205 395.069C465.819 395.044 464.746 393.909 464.877 392.602L474.139 300.079L482.221 300.802L468.922 393.82C468.861 394.181 468.67 394.508 468.385 394.738C468.1 394.968 467.741 395.086 467.376 395.071Z" fill="#C1C7D7"></path><path d="M601.946 286.973L610.737 209.697C611.888 198.561 608.164 187.657 592.095 186.813L563.829 185.091C547.074 184.4 539.51 198.345 537.388 209.081L520.606 294.028L601.946 286.973Z" fill="#C1C7D7"></path><path d="M597.22 301.433H471.763C470.548 301.43 469.384 300.946 468.525 300.087C467.666 299.228 467.182 298.065 467.178 296.85V291.206C467.182 289.991 467.666 288.827 468.525 287.968C469.384 287.11 470.548 286.626 471.763 286.622H601.803V296.85C601.8 298.064 601.316 299.228 600.457 300.087C599.598 300.946 598.435 301.43 597.22 301.433Z" fill="#C1C7D7"></path><path d="M598.244 301.433H524.166C523.223 301.43 522.319 301.054 521.653 300.387C520.986 299.72 520.61 298.817 520.606 297.874V290.182C520.609 289.239 520.985 288.335 521.652 287.668C522.319 287.001 523.222 286.625 524.166 286.622H601.803V297.874C601.8 298.817 601.424 299.721 600.757 300.387C600.09 301.054 599.187 301.43 598.244 301.433Z" fill="#C1C7D7"></path><path d="M66.7768 279.802C72.831 276.668 79.9679 276.269 86.7202 277.381C90.3385 277.979 94.1135 279.061 96.5637 281.768C99.0139 284.475 99.4982 289.275 96.6634 291.597C94.8481 292.837 92.654 293.397 90.4667 293.179C85.196 293.179 79.3411 292.196 75.1388 295.358C72.7313 297.167 71.1358 300.173 68.2583 301.056C66.8209 301.386 65.3152 301.239 63.9687 300.638C62.6221 300.036 61.5077 299.013 60.7938 297.723C59.428 295.087 59.1222 292.029 59.939 289.176C60.2818 287.193 61.0769 285.316 62.2628 283.69C63.4487 282.064 64.9933 280.734 66.7768 279.802Z" fill="#EDF7FC"></path><path d="M52.8731 252.979C56.5912 258.278 63.7993 256.526 67.1184 253.292C70.4376 250.058 71.8764 245.372 73.1585 240.913C76.093 230.699 79.056 219.986 76.8765 209.573C76.3533 206.41 74.9682 203.453 72.8735 201.026C71.8203 199.848 70.4776 198.965 68.9785 198.466C67.4794 197.966 65.8758 197.866 64.3264 198.177C60.6938 199.131 58.4288 202.693 56.7906 206.083C51.987 216.078 49.4711 227.017 49.4258 238.106C49.4258 243.263 50.0098 248.676 52.9159 252.936" fill="#EDF7FC"></path><path d="M42.7306 260.585C46.7478 255.799 47.5171 248.833 45.7221 242.85C43.6859 236.903 40.054 231.63 35.2234 227.608C29.7336 222.725 23.3473 218.956 16.4196 216.51C13.7358 215.427 10.8484 214.941 7.95785 215.086C6.5115 215.161 5.10565 215.59 3.86375 216.335C2.62185 217.08 1.58189 218.119 0.835198 219.359C-1.1449 223.206 0.749726 227.721 2.84379 231.468C6.44692 238.049 10.5623 244.336 15.1517 250.272C18.8555 255.044 23.1006 259.759 28.7418 261.91C34.3829 264.061 40.2377 263.819 43.2292 259.902" fill="#EDF7FC"></path><path d="M52.702 332.895C52.9 332.107 53.0098 331.299 53.0297 330.487L53.6707 323.92C53.983 320.688 54.4585 317.474 55.0953 314.29C55.9565 310.404 57.1284 306.593 58.5996 302.894C60.0337 299.208 61.9859 295.744 64.3974 292.609C66.3604 290.054 68.8662 287.967 71.7338 286.498C73.6823 285.54 75.7681 284.891 77.9162 284.574C78.7238 284.546 79.5261 284.431 80.3094 284.233C79.5001 284.139 78.6828 284.139 77.8735 284.233C75.6403 284.389 73.4538 284.949 71.4204 285.885C68.3985 287.313 65.7466 289.419 63.6709 292.039C61.1598 295.223 59.134 298.761 57.6594 302.538C56.1458 306.273 54.9636 310.134 54.1266 314.077C53.5019 317.295 53.0737 320.549 52.8445 323.82C52.6308 326.669 52.5596 328.877 52.5169 330.43C52.4875 331.256 52.5496 332.082 52.702 332.895Z" fill="#C1C7D7"></path><path d="M53.0871 327.809C53.1207 327.439 53.1207 327.067 53.0871 326.698C53.0871 325.857 53.0871 324.803 53.0871 323.507C53.0871 320.658 53.087 316.726 53.2295 311.769C53.4859 301.868 54.3406 291.213 55.9788 276.155C57.5458 262.024 59.6399 245.585 61.8479 234.844C62.318 232.408 62.7881 230.229 63.2724 228.305C63.7568 226.382 64.0702 224.73 64.4121 223.391C64.754 222.052 64.9676 221.112 65.1671 220.285C65.2702 219.927 65.337 219.56 65.3665 219.188C65.1858 219.52 65.0516 219.875 64.9676 220.243C64.7255 221.04 64.4263 222.052 64.0417 223.291C63.6571 224.53 63.2155 226.268 62.7311 228.177C62.2468 230.086 61.7055 232.266 61.1784 234.702C58.4521 247.371 56.4026 260.177 55.0387 273.064C53.3862 288.122 52.6454 301.826 52.5742 311.754C52.5742 316.726 52.5742 320.743 52.7452 323.507C52.8306 324.803 52.8876 325.857 52.9446 326.698C52.9412 327.073 52.9892 327.447 53.0871 327.809Z" fill="#C1C7D7"></path><path d="M53.144 301.37C53.2308 300.26 53.2308 299.146 53.144 298.036C53.0157 295.885 52.7166 292.794 52.1183 288.99C51.3837 284.552 50.404 280.158 49.1838 275.828C47.7382 270.501 45.8905 265.291 43.6566 260.243C39.8358 250.943 34.3574 242.414 27.4882 235.072C26.2954 233.816 25.0251 232.636 23.6847 231.539C23.1006 231.041 22.5878 230.556 22.0607 230.115L20.6362 229.103C19.7374 228.428 18.7845 227.827 17.7871 227.308C21.0257 229.845 24.0994 232.586 26.9896 235.514C33.6296 242.932 38.9533 251.431 42.7306 260.642C44.9154 265.662 46.7665 270.821 48.2721 276.084C49.6966 280.913 50.6653 285.372 51.3918 289.119C52.1183 292.865 52.4887 295.942 52.7308 298.065C52.7775 299.176 52.9156 300.281 53.144 301.37Z" fill="#C1C7D7"></path><path d="M25.8213 344.006L28.4709 380.303H75.11L77.7597 344.006H25.8213Z" fill="#0D3BFB"></path><path d="M83.3301 329.689H21.3203V343.992H83.3301V329.689Z" fill="#0D3BFB"></path><path d="M21.3057 378.921V382.881H24.226H82.2898V378.921H21.3057Z" fill="#E4E9F2"></path><path d="M27.0889 389.42L24.2256 382.44H80.0672L76.7338 389.42H27.0889Z" fill="#0D3BFB"></path><path d="M76.9189 355.858C76.8535 355.979 76.7772 356.093 76.691 356.2C76.5058 356.442 76.2779 356.741 76.0072 357.126C75.3377 357.966 74.426 359.135 73.2864 360.602L73.1581 360.744L73.0442 360.588L66.3489 351.414H66.7335L60.1522 360.716L59.9527 361.015L59.7248 360.73C57.2889 357.881 54.6535 354.718 51.9326 351.471H52.3742L51.9469 352.012L44.9809 360.744L44.7388 361.043L44.5251 360.73L37.958 351.414H38.3426L30.237 360.63L30.0946 360.801L29.9949 360.616L27.4592 356.342L26.8039 355.203C26.7224 355.078 26.6555 354.944 26.6045 354.804C26.6045 354.804 26.7042 354.918 26.8752 355.16L27.6017 356.257L30.2513 360.431H30.0091L37.9722 351.086L38.1717 350.858L38.3569 351.114L44.9809 360.374H44.5393L51.491 351.627L51.9184 351.086L52.1463 350.801L52.3742 351.072L60.1379 360.374H59.7106L66.3489 351.114L66.5341 350.844L66.7335 351.114L73.2579 360.445H73.0299L75.879 357.069L76.634 356.186C76.7117 356.063 76.8078 355.952 76.9189 355.858Z" fill="#F5F5F5" stroke="white" stroke-width="1.42453" stroke-miterlimit="10" stroke-linecap="square"></path><path d="M78.3442 343.764C78.3442 343.92 66.6631 344.049 52.2468 344.049C37.8306 344.049 26.1494 343.92 26.1494 343.764C26.1494 343.607 37.8306 343.465 52.2468 343.465C66.6631 343.465 78.3442 343.593 78.3442 343.764Z" fill="#F5F5F5"></path><path d="M184.226 50.945C187.662 36.8606 179.029 22.6575 164.945 19.2214C150.861 15.7854 136.657 24.4177 133.221 38.5021C129.785 52.5865 138.418 66.7896 152.502 70.2256C166.586 73.6616 180.79 65.0294 184.226 50.945Z" fill="#0D3BFB"></path><path d="M162.036 65.383C173.438 63.5506 181.195 52.822 179.363 41.4201C177.531 30.0181 166.802 22.2604 155.4 24.0929C143.998 25.9253 136.24 36.6539 138.073 48.0559C139.905 59.4578 150.634 67.2155 162.036 65.383Z" fill="white"></path><path d="M158.824 64.0129L159.794 45.1929L168.654 36.2329L158.014 43.8929L157.634 44.7329L158.824 64.0129Z" fill="#0D3BFB"></path></g><defs><clipPath id="clip0"><rect width="699" height="397" fill="white"></rect></clipPath></defs></svg> 